<mxfile host="app.diagrams.net" modified="2023-10-26T04:31:05.047Z" agent="Mozilla/5.0 (Windows NT 10.0; Win64; x64) AppleWebKit/537.36 (KHTML, like Gecko) Chrome/118.0.0.0 Safari/537.36" etag="eVEjY1fD6jMHvcoCwQVu" version="22.0.8" type="device">
  <diagram name="Page-1" id="VVTQXPvJjGiCOC4bbTcc">
    <mxGraphModel dx="398" dy="254" grid="1" gridSize="10" guides="1" tooltips="1" connect="1" arrows="1" fold="1" page="1" pageScale="1" pageWidth="1654" pageHeight="1169" math="0" shadow="0">
      <root>
        <mxCell id="0" />
        <mxCell id="1" parent="0" />
        <mxCell id="PA_mYQwH01xOyMPmO3M9-2" value="User Data" style="rounded=0;whiteSpace=wrap;html=1;" vertex="1" parent="1">
          <mxGeometry x="40" y="40" width="360" height="40" as="geometry" />
        </mxCell>
        <mxCell id="PA_mYQwH01xOyMPmO3M9-4" value="FRAME_SIZE (bytes)" style="text;html=1;strokeColor=none;fillColor=none;align=center;verticalAlign=middle;whiteSpace=wrap;rounded=0;" vertex="1" parent="1">
          <mxGeometry x="160" y="10" width="120" height="30" as="geometry" />
        </mxCell>
        <mxCell id="PA_mYQwH01xOyMPmO3M9-6" value="0" style="rounded=0;whiteSpace=wrap;html=1;" vertex="1" parent="1">
          <mxGeometry x="40" y="160" width="40" height="40" as="geometry" />
        </mxCell>
        <mxCell id="PA_mYQwH01xOyMPmO3M9-7" value="Size" style="rounded=0;whiteSpace=wrap;html=1;" vertex="1" parent="1">
          <mxGeometry x="80" y="160" width="40" height="40" as="geometry" />
        </mxCell>
        <mxCell id="PA_mYQwH01xOyMPmO3M9-8" value="Payload" style="rounded=0;whiteSpace=wrap;html=1;" vertex="1" parent="1">
          <mxGeometry x="120" y="160" width="200" height="40" as="geometry" />
        </mxCell>
        <mxCell id="PA_mYQwH01xOyMPmO3M9-10" value="Padding" style="rounded=0;whiteSpace=wrap;html=1;" vertex="1" parent="1">
          <mxGeometry x="320" y="160" width="80" height="40" as="geometry" />
        </mxCell>
        <mxCell id="PA_mYQwH01xOyMPmO3M9-12" value="1" style="rounded=0;whiteSpace=wrap;html=1;" vertex="1" parent="1">
          <mxGeometry x="40" y="240" width="40" height="40" as="geometry" />
        </mxCell>
        <mxCell id="PA_mYQwH01xOyMPmO3M9-13" value="Size" style="rounded=0;whiteSpace=wrap;html=1;" vertex="1" parent="1">
          <mxGeometry x="80" y="240" width="80" height="40" as="geometry" />
        </mxCell>
        <mxCell id="PA_mYQwH01xOyMPmO3M9-14" value="Payload" style="rounded=0;whiteSpace=wrap;html=1;" vertex="1" parent="1">
          <mxGeometry x="160" y="240" width="240" height="40" as="geometry" />
        </mxCell>
        <mxCell id="PA_mYQwH01xOyMPmO3M9-17" value="2" style="rounded=0;whiteSpace=wrap;html=1;" vertex="1" parent="1">
          <mxGeometry x="40" y="320" width="40" height="40" as="geometry" />
        </mxCell>
        <mxCell id="PA_mYQwH01xOyMPmO3M9-18" value="Index" style="rounded=0;whiteSpace=wrap;html=1;" vertex="1" parent="1">
          <mxGeometry x="80" y="320" width="80" height="40" as="geometry" />
        </mxCell>
        <mxCell id="PA_mYQwH01xOyMPmO3M9-19" value="Payload" style="rounded=0;whiteSpace=wrap;html=1;" vertex="1" parent="1">
          <mxGeometry x="160" y="320" width="160" height="40" as="geometry" />
        </mxCell>
        <mxCell id="PA_mYQwH01xOyMPmO3M9-20" value="Padding" style="rounded=0;whiteSpace=wrap;html=1;" vertex="1" parent="1">
          <mxGeometry x="320" y="320" width="80" height="40" as="geometry" />
        </mxCell>
        <mxCell id="PA_mYQwH01xOyMPmO3M9-21" value="Constants" style="swimlane;fontStyle=0;childLayout=stackLayout;horizontal=1;startSize=26;fillColor=none;horizontalStack=0;resizeParent=1;resizeParentMax=0;resizeLast=0;collapsible=1;marginBottom=0;whiteSpace=wrap;html=1;" vertex="1" parent="1">
          <mxGeometry x="480" y="40" width="240" height="130" as="geometry" />
        </mxCell>
        <mxCell id="PA_mYQwH01xOyMPmO3M9-22" value="+ FRAME_SIZE: int" style="text;strokeColor=none;fillColor=none;align=left;verticalAlign=top;spacingLeft=4;spacingRight=4;overflow=hidden;rotatable=0;points=[[0,0.5],[1,0.5]];portConstraint=eastwest;whiteSpace=wrap;html=1;" vertex="1" parent="PA_mYQwH01xOyMPmO3M9-21">
          <mxGeometry y="26" width="240" height="26" as="geometry" />
        </mxCell>
        <mxCell id="PA_mYQwH01xOyMPmO3M9-35" value="+ LIMIT_PACKET_SIZE: int" style="text;strokeColor=none;fillColor=none;align=left;verticalAlign=top;spacingLeft=4;spacingRight=4;overflow=hidden;rotatable=0;points=[[0,0.5],[1,0.5]];portConstraint=eastwest;whiteSpace=wrap;html=1;" vertex="1" parent="PA_mYQwH01xOyMPmO3M9-21">
          <mxGeometry y="52" width="240" height="26" as="geometry" />
        </mxCell>
        <mxCell id="PA_mYQwH01xOyMPmO3M9-30" value="+ PADDING_VAL: byte" style="text;strokeColor=none;fillColor=none;align=left;verticalAlign=top;spacingLeft=4;spacingRight=4;overflow=hidden;rotatable=0;points=[[0,0.5],[1,0.5]];portConstraint=eastwest;whiteSpace=wrap;html=1;" vertex="1" parent="PA_mYQwH01xOyMPmO3M9-21">
          <mxGeometry y="78" width="240" height="26" as="geometry" />
        </mxCell>
        <mxCell id="PA_mYQwH01xOyMPmO3M9-37" value="+ TIMEOUT_MS: int" style="text;strokeColor=none;fillColor=none;align=left;verticalAlign=top;spacingLeft=4;spacingRight=4;overflow=hidden;rotatable=0;points=[[0,0.5],[1,0.5]];portConstraint=eastwest;whiteSpace=wrap;html=1;" vertex="1" parent="PA_mYQwH01xOyMPmO3M9-21">
          <mxGeometry y="104" width="240" height="26" as="geometry" />
        </mxCell>
        <mxCell id="PA_mYQwH01xOyMPmO3M9-25" value="TP API" style="swimlane;fontStyle=0;childLayout=stackLayout;horizontal=1;startSize=26;fillColor=none;horizontalStack=0;resizeParent=1;resizeParentMax=0;resizeLast=0;collapsible=1;marginBottom=0;whiteSpace=wrap;html=1;" vertex="1" parent="1">
          <mxGeometry x="480" y="240" width="240" height="130" as="geometry" />
        </mxCell>
        <mxCell id="PA_mYQwH01xOyMPmO3M9-26" value="+ tp_send(addr, len): int" style="text;strokeColor=none;fillColor=none;align=left;verticalAlign=top;spacingLeft=4;spacingRight=4;overflow=hidden;rotatable=0;points=[[0,0.5],[1,0.5]];portConstraint=eastwest;whiteSpace=wrap;html=1;" vertex="1" parent="PA_mYQwH01xOyMPmO3M9-25">
          <mxGeometry y="26" width="240" height="26" as="geometry" />
        </mxCell>
        <mxCell id="PA_mYQwH01xOyMPmO3M9-29" value="+ tp_recv(addr, len): int" style="text;strokeColor=none;fillColor=none;align=left;verticalAlign=top;spacingLeft=4;spacingRight=4;overflow=hidden;rotatable=0;points=[[0,0.5],[1,0.5]];portConstraint=eastwest;whiteSpace=wrap;html=1;" vertex="1" parent="PA_mYQwH01xOyMPmO3M9-25">
          <mxGeometry y="52" width="240" height="26" as="geometry" />
        </mxCell>
        <mxCell id="PA_mYQwH01xOyMPmO3M9-28" value="+ tp_rx_available(): int" style="text;strokeColor=none;fillColor=none;align=left;verticalAlign=top;spacingLeft=4;spacingRight=4;overflow=hidden;rotatable=0;points=[[0,0.5],[1,0.5]];portConstraint=eastwest;whiteSpace=wrap;html=1;" vertex="1" parent="PA_mYQwH01xOyMPmO3M9-25">
          <mxGeometry y="78" width="240" height="26" as="geometry" />
        </mxCell>
        <mxCell id="PA_mYQwH01xOyMPmO3M9-27" value="+ tp_task(): int" style="text;strokeColor=none;fillColor=none;align=left;verticalAlign=top;spacingLeft=4;spacingRight=4;overflow=hidden;rotatable=0;points=[[0,0.5],[1,0.5]];portConstraint=eastwest;whiteSpace=wrap;html=1;" vertex="1" parent="PA_mYQwH01xOyMPmO3M9-25">
          <mxGeometry y="104" width="240" height="26" as="geometry" />
        </mxCell>
        <mxCell id="PA_mYQwH01xOyMPmO3M9-31" value="Internal Data" style="swimlane;fontStyle=0;childLayout=stackLayout;horizontal=1;startSize=26;fillColor=none;horizontalStack=0;resizeParent=1;resizeParentMax=0;resizeLast=0;collapsible=1;marginBottom=0;whiteSpace=wrap;html=1;" vertex="1" parent="1">
          <mxGeometry x="480" y="520" width="240" height="156" as="geometry" />
        </mxCell>
        <mxCell id="PA_mYQwH01xOyMPmO3M9-32" value="+ tp_rx_buf: byte[]" style="text;strokeColor=none;fillColor=none;align=left;verticalAlign=top;spacingLeft=4;spacingRight=4;overflow=hidden;rotatable=0;points=[[0,0.5],[1,0.5]];portConstraint=eastwest;whiteSpace=wrap;html=1;" vertex="1" parent="PA_mYQwH01xOyMPmO3M9-31">
          <mxGeometry y="26" width="240" height="26" as="geometry" />
        </mxCell>
        <mxCell id="PA_mYQwH01xOyMPmO3M9-33" value="+ tp_rx_size: int" style="text;strokeColor=none;fillColor=none;align=left;verticalAlign=top;spacingLeft=4;spacingRight=4;overflow=hidden;rotatable=0;points=[[0,0.5],[1,0.5]];portConstraint=eastwest;whiteSpace=wrap;html=1;" vertex="1" parent="PA_mYQwH01xOyMPmO3M9-31">
          <mxGeometry y="52" width="240" height="26" as="geometry" />
        </mxCell>
        <mxCell id="PA_mYQwH01xOyMPmO3M9-34" value="+ tp_rx_packet_size: int" style="text;strokeColor=none;fillColor=none;align=left;verticalAlign=top;spacingLeft=4;spacingRight=4;overflow=hidden;rotatable=0;points=[[0,0.5],[1,0.5]];portConstraint=eastwest;whiteSpace=wrap;html=1;" vertex="1" parent="PA_mYQwH01xOyMPmO3M9-31">
          <mxGeometry y="78" width="240" height="26" as="geometry" />
        </mxCell>
        <mxCell id="PA_mYQwH01xOyMPmO3M9-36" value="+ tp_rx_timestamp_ms: uint64_t" style="text;strokeColor=none;fillColor=none;align=left;verticalAlign=top;spacingLeft=4;spacingRight=4;overflow=hidden;rotatable=0;points=[[0,0.5],[1,0.5]];portConstraint=eastwest;whiteSpace=wrap;html=1;" vertex="1" parent="PA_mYQwH01xOyMPmO3M9-31">
          <mxGeometry y="104" width="240" height="26" as="geometry" />
        </mxCell>
        <mxCell id="PA_mYQwH01xOyMPmO3M9-38" value="+ tp_state:&amp;nbsp;tp_state_t" style="text;strokeColor=none;fillColor=none;align=left;verticalAlign=top;spacingLeft=4;spacingRight=4;overflow=hidden;rotatable=0;points=[[0,0.5],[1,0.5]];portConstraint=eastwest;whiteSpace=wrap;html=1;" vertex="1" parent="PA_mYQwH01xOyMPmO3M9-31">
          <mxGeometry y="130" width="240" height="26" as="geometry" />
        </mxCell>
        <mxCell id="PA_mYQwH01xOyMPmO3M9-39" value="tp_state_t" style="swimlane;fontStyle=0;childLayout=stackLayout;horizontal=1;startSize=26;fillColor=none;horizontalStack=0;resizeParent=1;resizeParentMax=0;resizeLast=0;collapsible=1;marginBottom=0;whiteSpace=wrap;html=1;" vertex="1" parent="1">
          <mxGeometry x="760" y="520" width="140" height="156" as="geometry" />
        </mxCell>
        <mxCell id="PA_mYQwH01xOyMPmO3M9-40" value="+ TP_STATE_IDLE" style="text;strokeColor=none;fillColor=none;align=left;verticalAlign=top;spacingLeft=4;spacingRight=4;overflow=hidden;rotatable=0;points=[[0,0.5],[1,0.5]];portConstraint=eastwest;whiteSpace=wrap;html=1;" vertex="1" parent="PA_mYQwH01xOyMPmO3M9-39">
          <mxGeometry y="26" width="140" height="26" as="geometry" />
        </mxCell>
        <mxCell id="PA_mYQwH01xOyMPmO3M9-41" value="+ TP_STATE_0" style="text;strokeColor=none;fillColor=none;align=left;verticalAlign=top;spacingLeft=4;spacingRight=4;overflow=hidden;rotatable=0;points=[[0,0.5],[1,0.5]];portConstraint=eastwest;whiteSpace=wrap;html=1;" vertex="1" parent="PA_mYQwH01xOyMPmO3M9-39">
          <mxGeometry y="52" width="140" height="26" as="geometry" />
        </mxCell>
        <mxCell id="PA_mYQwH01xOyMPmO3M9-43" value="+ TP_STATE_1" style="text;strokeColor=none;fillColor=none;align=left;verticalAlign=top;spacingLeft=4;spacingRight=4;overflow=hidden;rotatable=0;points=[[0,0.5],[1,0.5]];portConstraint=eastwest;whiteSpace=wrap;html=1;" vertex="1" parent="PA_mYQwH01xOyMPmO3M9-39">
          <mxGeometry y="78" width="140" height="26" as="geometry" />
        </mxCell>
        <mxCell id="PA_mYQwH01xOyMPmO3M9-65" value="+ TP_ABORT" style="text;strokeColor=none;fillColor=none;align=left;verticalAlign=top;spacingLeft=4;spacingRight=4;overflow=hidden;rotatable=0;points=[[0,0.5],[1,0.5]];portConstraint=eastwest;whiteSpace=wrap;html=1;" vertex="1" parent="PA_mYQwH01xOyMPmO3M9-39">
          <mxGeometry y="104" width="140" height="26" as="geometry" />
        </mxCell>
        <mxCell id="PA_mYQwH01xOyMPmO3M9-66" value="+ TP_AVAILABLE" style="text;strokeColor=none;fillColor=none;align=left;verticalAlign=top;spacingLeft=4;spacingRight=4;overflow=hidden;rotatable=0;points=[[0,0.5],[1,0.5]];portConstraint=eastwest;whiteSpace=wrap;html=1;" vertex="1" parent="PA_mYQwH01xOyMPmO3M9-39">
          <mxGeometry y="130" width="140" height="26" as="geometry" />
        </mxCell>
        <mxCell id="PA_mYQwH01xOyMPmO3M9-44" value="IDLE" style="ellipse;whiteSpace=wrap;html=1;" vertex="1" parent="1">
          <mxGeometry x="920" y="120" width="80" height="40" as="geometry" />
        </mxCell>
        <mxCell id="PA_mYQwH01xOyMPmO3M9-57" value="errors" style="rounded=0;orthogonalLoop=1;jettySize=auto;html=1;entryX=1;entryY=1;entryDx=0;entryDy=0;align=left;exitX=0.5;exitY=0;exitDx=0;exitDy=0;verticalAlign=bottom;" edge="1" parent="1" source="PA_mYQwH01xOyMPmO3M9-45" target="PA_mYQwH01xOyMPmO3M9-56">
          <mxGeometry x="-0.0634" y="2" relative="1" as="geometry">
            <mxPoint as="offset" />
          </mxGeometry>
        </mxCell>
        <mxCell id="PA_mYQwH01xOyMPmO3M9-45" value="STATE_0" style="ellipse;whiteSpace=wrap;html=1;" vertex="1" parent="1">
          <mxGeometry x="1080" y="120" width="80" height="40" as="geometry" />
        </mxCell>
        <mxCell id="PA_mYQwH01xOyMPmO3M9-49" value="1st/sgl frame" style="endArrow=classic;html=1;rounded=0;exitX=1;exitY=0.5;exitDx=0;exitDy=0;entryX=0;entryY=0.5;entryDx=0;entryDy=0;verticalAlign=bottom;" edge="1" parent="1" source="PA_mYQwH01xOyMPmO3M9-44" target="PA_mYQwH01xOyMPmO3M9-45">
          <mxGeometry width="50" height="50" relative="1" as="geometry">
            <mxPoint x="1100" y="230" as="sourcePoint" />
            <mxPoint x="1150" y="180" as="targetPoint" />
            <mxPoint as="offset" />
          </mxGeometry>
        </mxCell>
        <mxCell id="PA_mYQwH01xOyMPmO3M9-50" value="" style="endArrow=classic;html=1;rounded=0;entryX=0.5;entryY=1;entryDx=0;entryDy=0;exitX=0;exitY=0;exitDx=0;exitDy=0;" edge="1" parent="1" source="PA_mYQwH01xOyMPmO3M9-51" target="PA_mYQwH01xOyMPmO3M9-44">
          <mxGeometry width="50" height="50" relative="1" as="geometry">
            <mxPoint x="1100" y="230" as="sourcePoint" />
            <mxPoint x="1150" y="180" as="targetPoint" />
          </mxGeometry>
        </mxCell>
        <mxCell id="PA_mYQwH01xOyMPmO3M9-51" value="AVAILABLE" style="ellipse;whiteSpace=wrap;html=1;" vertex="1" parent="1">
          <mxGeometry x="1000" y="200" width="80" height="40" as="geometry" />
        </mxCell>
        <mxCell id="PA_mYQwH01xOyMPmO3M9-52" value="" style="endArrow=classic;html=1;rounded=0;entryX=1;entryY=0;entryDx=0;entryDy=0;exitX=0.5;exitY=1;exitDx=0;exitDy=0;" edge="1" parent="1" source="PA_mYQwH01xOyMPmO3M9-45" target="PA_mYQwH01xOyMPmO3M9-51">
          <mxGeometry width="50" height="50" relative="1" as="geometry">
            <mxPoint x="1100" y="230" as="sourcePoint" />
            <mxPoint x="1150" y="180" as="targetPoint" />
          </mxGeometry>
        </mxCell>
        <mxCell id="PA_mYQwH01xOyMPmO3M9-58" value="errors" style="rounded=0;orthogonalLoop=1;jettySize=auto;html=1;entryX=1;entryY=0.5;entryDx=0;entryDy=0;exitX=0.5;exitY=0;exitDx=0;exitDy=0;align=left;verticalAlign=bottom;" edge="1" parent="1" source="PA_mYQwH01xOyMPmO3M9-53" target="PA_mYQwH01xOyMPmO3M9-56">
          <mxGeometry x="0.044" y="1" relative="1" as="geometry">
            <mxPoint as="offset" />
          </mxGeometry>
        </mxCell>
        <mxCell id="PA_mYQwH01xOyMPmO3M9-53" value="STATE_1" style="ellipse;whiteSpace=wrap;html=1;" vertex="1" parent="1">
          <mxGeometry x="1240" y="120" width="80" height="40" as="geometry" />
        </mxCell>
        <mxCell id="PA_mYQwH01xOyMPmO3M9-54" value="" style="endArrow=classic;html=1;rounded=0;entryX=0;entryY=0.5;entryDx=0;entryDy=0;exitX=1;exitY=0.5;exitDx=0;exitDy=0;" edge="1" parent="1" source="PA_mYQwH01xOyMPmO3M9-45" target="PA_mYQwH01xOyMPmO3M9-53">
          <mxGeometry width="50" height="50" relative="1" as="geometry">
            <mxPoint x="1100" y="230" as="sourcePoint" />
            <mxPoint x="1150" y="180" as="targetPoint" />
          </mxGeometry>
        </mxCell>
        <mxCell id="PA_mYQwH01xOyMPmO3M9-55" value="" style="endArrow=classic;html=1;rounded=0;entryX=1;entryY=0.5;entryDx=0;entryDy=0;exitX=0.5;exitY=1;exitDx=0;exitDy=0;" edge="1" parent="1" source="PA_mYQwH01xOyMPmO3M9-53" target="PA_mYQwH01xOyMPmO3M9-51">
          <mxGeometry width="50" height="50" relative="1" as="geometry">
            <mxPoint x="1100" y="230" as="sourcePoint" />
            <mxPoint x="1150" y="180" as="targetPoint" />
          </mxGeometry>
        </mxCell>
        <mxCell id="PA_mYQwH01xOyMPmO3M9-59" style="rounded=0;orthogonalLoop=1;jettySize=auto;html=1;entryX=0.5;entryY=0;entryDx=0;entryDy=0;exitX=0;exitY=0.5;exitDx=0;exitDy=0;" edge="1" parent="1" source="PA_mYQwH01xOyMPmO3M9-56" target="PA_mYQwH01xOyMPmO3M9-44">
          <mxGeometry relative="1" as="geometry" />
        </mxCell>
        <mxCell id="PA_mYQwH01xOyMPmO3M9-56" value="ABORT" style="ellipse;whiteSpace=wrap;html=1;" vertex="1" parent="1">
          <mxGeometry x="1000" y="40" width="80" height="40" as="geometry" />
        </mxCell>
        <mxCell id="PA_mYQwH01xOyMPmO3M9-67" value="PHY API" style="swimlane;fontStyle=0;childLayout=stackLayout;horizontal=1;startSize=26;fillColor=none;horizontalStack=0;resizeParent=1;resizeParentMax=0;resizeLast=0;collapsible=1;marginBottom=0;whiteSpace=wrap;html=1;" vertex="1" parent="1">
          <mxGeometry x="760" y="240" width="160" height="78" as="geometry" />
        </mxCell>
        <mxCell id="PA_mYQwH01xOyMPmO3M9-68" value="+ phy_send(addr, len): int" style="text;strokeColor=none;fillColor=none;align=left;verticalAlign=top;spacingLeft=4;spacingRight=4;overflow=hidden;rotatable=0;points=[[0,0.5],[1,0.5]];portConstraint=eastwest;whiteSpace=wrap;html=1;" vertex="1" parent="PA_mYQwH01xOyMPmO3M9-67">
          <mxGeometry y="26" width="160" height="26" as="geometry" />
        </mxCell>
        <mxCell id="PA_mYQwH01xOyMPmO3M9-69" value="+ phy_recv(addr, len): int" style="text;strokeColor=none;fillColor=none;align=left;verticalAlign=top;spacingLeft=4;spacingRight=4;overflow=hidden;rotatable=0;points=[[0,0.5],[1,0.5]];portConstraint=eastwest;whiteSpace=wrap;html=1;" vertex="1" parent="PA_mYQwH01xOyMPmO3M9-67">
          <mxGeometry y="52" width="160" height="26" as="geometry" />
        </mxCell>
        <mxCell id="PA_mYQwH01xOyMPmO3M9-76" value="3" style="rounded=0;whiteSpace=wrap;html=1;" vertex="1" parent="1">
          <mxGeometry x="40" y="400" width="40" height="40" as="geometry" />
        </mxCell>
        <mxCell id="PA_mYQwH01xOyMPmO3M9-77" value="Flag" style="rounded=0;whiteSpace=wrap;html=1;" vertex="1" parent="1">
          <mxGeometry x="80" y="400" width="40" height="40" as="geometry" />
        </mxCell>
        <mxCell id="PA_mYQwH01xOyMPmO3M9-78" value="Padding" style="rounded=0;whiteSpace=wrap;html=1;" vertex="1" parent="1">
          <mxGeometry x="120" y="400" width="280" height="40" as="geometry" />
        </mxCell>
        <mxCell id="PA_mYQwH01xOyMPmO3M9-82" style="rounded=0;orthogonalLoop=1;jettySize=auto;html=1;entryX=0;entryY=0;entryDx=0;entryDy=0;exitX=1;exitY=0;exitDx=0;exitDy=0;" edge="1" parent="1" source="PA_mYQwH01xOyMPmO3M9-80" target="PA_mYQwH01xOyMPmO3M9-81">
          <mxGeometry relative="1" as="geometry" />
        </mxCell>
        <mxCell id="PA_mYQwH01xOyMPmO3M9-80" value="IDLE" style="ellipse;whiteSpace=wrap;html=1;" vertex="1" parent="1">
          <mxGeometry x="1040" y="320" width="80" height="40" as="geometry" />
        </mxCell>
        <mxCell id="PA_mYQwH01xOyMPmO3M9-83" style="rounded=0;orthogonalLoop=1;jettySize=auto;html=1;entryX=1;entryY=1;entryDx=0;entryDy=0;exitX=0;exitY=1;exitDx=0;exitDy=0;" edge="1" parent="1" source="PA_mYQwH01xOyMPmO3M9-81" target="PA_mYQwH01xOyMPmO3M9-80">
          <mxGeometry relative="1" as="geometry" />
        </mxCell>
        <mxCell id="PA_mYQwH01xOyMPmO3M9-81" value="STATE_0" style="ellipse;whiteSpace=wrap;html=1;" vertex="1" parent="1">
          <mxGeometry x="1200" y="320" width="80" height="40" as="geometry" />
        </mxCell>
      </root>
    </mxGraphModel>
  </diagram>
</mxfile>
